<?xml version="1.0" standalone="no"?>
<!DOCTYPE svg PUBLIC "-//W3C//DTD SVG 20010904//EN"
 "http://www.w3.org/TR/2001/REC-SVG-20010904/DTD/svg10.dtd">
<svg version="1.0" xmlns="http://www.w3.org/2000/svg"
 width="700.000000pt" height="700.000000pt" viewBox="0 0 700.000000 700.000000"
 preserveAspectRatio="xMidYMid meet">
<metadata>
Created by potrace 1.11, written by Peter Selinger 2001-2013
</metadata>
<g transform="translate(0.000000,700.000000) scale(0.100000,-0.100000)"
fill="#000000" stroke="none">
<path d="M3330 6907 c0 -84 14 -111 67 -134 20 -8 37 -12 40 -9 3 2 0 21 -7
41 -7 20 -10 38 -7 41 9 10 40 -51 43 -85 12 -125 15 -284 6 -293 -6 -6 -19 7
-38 36 -16 25 -35 46 -41 46 -19 0 -16 -8 29 -90 l42 -75 4 -132 c2 -73 0
-133 -5 -133 -5 0 -47 39 -93 86 -76 77 -141 124 -170 124 -19 0 -10 -22 22
-51 23 -23 28 -33 20 -41 -24 -24 -13 -38 27 -38 35 0 45 -7 98 -63 79 -85 93
-117 93 -215 0 -45 -5 -84 -10 -87 -6 -4 -25 -1 -44 5 -26 8 -33 16 -33 36 0
28 -79 116 -132 147 l-29 17 2 -65 c3 -76 -3 -79 -93 -44 -48 18 -141 41 -141
34 0 -14 46 -101 66 -125 21 -25 33 -30 68 -30 24 0 46 3 50 7 3 4 -8 21 -25
39 l-31 32 68 -24 c102 -36 152 -71 202 -144 56 -80 72 -132 72 -227 0 -83 -4
-86 -70 -53 -22 11 -51 20 -66 20 -26 0 -27 0 -9 -20 10 -11 23 -20 30 -20 17
0 82 -71 94 -103 14 -37 14 -140 0 -135 -5 2 -64 53 -130 113 l-121 109 42 14
42 14 -49 50 c-40 42 -44 49 -23 43 14 -4 42 -16 63 -26 l37 -19 0 25 c0 35
-28 59 -96 85 -69 25 -193 55 -200 47 -3 -3 0 -16 7 -28 7 -13 14 -36 15 -51
4 -33 -14 -36 -90 -13 -57 18 -66 18 -66 6 0 -5 26 -19 58 -31 31 -12 73 -31
92 -43 54 -32 180 -158 180 -179 0 -10 -18 -41 -40 -69 -22 -28 -40 -57 -40
-64 0 -30 18 -22 59 26 23 27 49 49 57 49 22 0 146 -129 180 -185 24 -42 29
-62 32 -140 4 -90 -7 -145 -29 -145 -6 0 -43 31 -83 68 -39 38 -87 81 -106 96
-19 16 -50 49 -68 74 -27 38 -31 51 -26 80 6 33 6 35 -19 29 -29 -8 -45 17
-25 40 14 17 -4 33 -38 33 -11 0 -29 10 -40 21 -16 19 -78 68 -145 118 -20 14
-109 25 -109 13 0 -4 16 -20 35 -35 26 -21 35 -36 35 -57 0 -34 6 -37 31 -14
17 15 20 14 48 -5 17 -12 40 -35 51 -51 l21 -30 -56 -63 c-31 -35 -65 -77 -76
-94 l-19 -30 77 -1 c72 -1 125 6 166 23 11 5 17 3 16 -6 0 -13 -50 -50 -176
-130 -61 -38 -83 -67 -42 -55 43 13 54 12 54 -8 0 -34 20 -28 43 13 12 21 38
53 57 70 29 25 45 31 82 31 45 0 47 -1 150 -107 96 -100 162 -187 151 -199 -3
-3 -39 6 -80 20 -60 20 -189 48 -194 42 -1 0 23 -50 55 -110 70 -136 88 -151
182 -151 l70 0 -7 -100 c-3 -55 -9 -103 -13 -108 -10 -11 -34 11 -91 83 -98
123 -167 190 -198 190 -40 0 -52 17 -52 72 0 58 -16 63 -54 17 -32 -38 -33
-65 -4 -73 17 -4 20 -8 11 -17 -8 -8 -20 -8 -48 1 -28 9 -47 9 -82 0 -42 -10
-95 -8 -145 6 -34 10 -18 -22 22 -45 22 -12 40 -29 40 -37 0 -17 1 -17 -38 -3
-24 8 -37 7 -62 -6 -41 -21 -153 -133 -208 -207 -24 -32 -47 -58 -51 -58 -13
0 -65 62 -92 109 -12 23 -28 40 -33 38 -14 -5 -9 -54 10 -91 13 -28 12 -30
-22 -68 -45 -51 -34 -70 23 -37 l39 22 42 -28 c23 -15 42 -33 42 -40 0 -6 -18
-40 -40 -74 -22 -34 -40 -66 -40 -71 0 -22 29 -8 58 29 54 68 125 72 210 13
15 -10 70 -39 122 -65 52 -26 113 -63 134 -83 54 -51 166 -203 166 -225 0 -31
-59 -88 -125 -119 -35 -17 -73 -42 -84 -56 -20 -26 -37 -81 -27 -91 3 -3 27
13 54 35 41 35 54 40 92 39 l45 -2 5 -50 c3 -27 9 -56 13 -62 5 -7 4 -13 -1
-13 -12 0 -92 -154 -92 -176 0 -12 6 -15 27 -10 31 8 43 -5 43 -51 0 -40 -25
-58 -93 -67 -26 -3 -80 -20 -120 -37 -66 -28 -78 -31 -149 -25 -108 8 -213 52
-294 125 -130 117 -198 171 -216 171 -10 0 -18 -4 -18 -10 0 -5 -7 -10 -15
-10 -34 0 -12 -29 34 -45 37 -12 61 -29 95 -69 l46 -54 -29 -12 c-38 -15 -153
-127 -213 -207 l-47 -62 132 3 c100 2 140 7 165 20 37 19 79 77 88 124 4 19
13 32 22 32 23 0 82 -49 82 -68 0 -10 -23 -54 -50 -97 -52 -83 -66 -117 -56
-134 12 -19 37 2 67 54 16 29 54 76 84 104 60 57 80 61 170 38 64 -17 68 -36
17 -92 -45 -48 -73 -118 -54 -137 7 -7 18 4 36 41 29 56 53 66 58 24 5 -46 22
-32 30 25 15 100 40 115 141 87 82 -22 225 -94 249 -125 11 -14 41 -62 67
-107 97 -168 114 -278 127 -813 5 -190 2 -251 -15 -391 -11 -91 -24 -213 -27
-270 -6 -93 -11 -115 -49 -204 -24 -55 -46 -116 -50 -135 -21 -107 -133 -209
-266 -244 -82 -21 -133 -50 -171 -97 -18 -23 -67 -76 -108 -118 -79 -81 -122
-153 -103 -172 26 -26 110 39 205 159 52 65 85 87 178 117 30 10 86 33 124 52
45 23 72 31 78 25 7 -7 -9 -58 -47 -151 -53 -131 -62 -181 -35 -181 15 0 47
49 100 150 36 70 62 108 88 127 20 16 65 56 99 91 58 58 63 61 68 40 3 -13 9
-114 13 -225 6 -172 10 -205 25 -220 16 -16 18 -16 34 0 15 15 19 48 25 220 4
111 10 212 13 225 5 21 10 18 68 -40 34 -35 79 -75 99 -91 26 -19 52 -57 88
-127 53 -101 85 -150 100 -150 27 0 17 50 -36 181 -38 94 -53 144 -47 150 7 7
33 -1 79 -24 38 -19 94 -42 124 -52 93 -30 126 -52 178 -117 95 -120 179 -185
205 -159 19 19 -24 91 -103 171 -41 43 -90 96 -108 119 -38 47 -89 76 -171 97
-133 35 -245 137 -266 244 -4 19 -26 80 -50 135 -38 89 -43 111 -49 205 -3 58
-16 179 -27 269 -18 143 -20 195 -15 400 12 435 20 519 62 666 13 49 92 194
132 245 25 31 167 103 248 126 102 28 127 12 142 -88 8 -57 25 -71 30 -25 5
42 29 32 58 -24 18 -37 29 -48 36 -41 19 19 -9 89 -54 137 -51 56 -47 75 17
92 91 23 110 19 172 -39 30 -29 66 -74 79 -100 26 -52 60 -79 70 -55 7 20 -15
69 -65 146 -22 35 -41 72 -41 82 0 20 58 69 81 69 9 0 20 -17 26 -43 7 -23 21
-55 33 -70 40 -50 73 -60 217 -63 l132 -3 -47 62 c-60 80 -175 192 -213 207
l-29 12 46 54 c34 40 58 57 95 69 46 16 68 45 34 45 -8 0 -15 5 -15 10 0 6 -8
10 -18 10 -18 0 -86 -54 -216 -171 -81 -73 -186 -117 -294 -125 -71 -6 -83 -3
-149 25 -40 17 -94 34 -120 37 -68 9 -93 27 -93 67 0 46 12 59 43 51 20 -4 27
-2 27 9 0 21 -81 177 -92 177 -5 0 -6 6 -1 13 4 6 10 35 13 62 l5 50 45 2 c38
1 51 -4 92 -39 27 -22 51 -38 54 -35 10 10 -7 65 -27 91 -11 14 -49 39 -84 56
-66 31 -125 88 -125 119 0 22 112 174 166 225 21 20 82 57 134 83 52 26 107
55 122 65 85 59 156 55 210 -13 29 -37 58 -51 58 -29 0 5 -18 37 -40 71 -22
34 -40 68 -40 74 0 7 19 25 42 40 l42 28 38 -21 c45 -26 48 -27 48 -5 0 9 -14
31 -31 49 -25 25 -29 35 -20 50 16 31 31 86 25 95 -10 17 -20 9 -43 -32 -27
-47 -79 -109 -92 -109 -4 0 -27 26 -51 58 -55 74 -167 186 -208 207 -31 16
-44 16 -82 0 -37 -15 -18 24 22 46 40 23 56 55 23 45 -51 -14 -104 -16 -146
-6 -35 9 -54 9 -82 0 -28 -9 -40 -9 -48 -1 -9 9 -6 13 11 17 29 8 28 35 -4 73
-38 46 -54 41 -54 -17 0 -55 -12 -72 -52 -72 -31 0 -100 -67 -198 -190 -57
-72 -81 -94 -91 -83 -4 5 -10 54 -14 109 l-7 101 50 -5 c103 -9 137 18 215
174 l45 92 -41 -5 c-35 -5 -136 -32 -219 -60 -50 -16 -4 52 133 196 105 110
106 111 152 111 37 0 53 -6 82 -31 19 -17 45 -49 57 -70 23 -41 43 -47 43 -13
0 20 11 21 54 8 42 -13 19 17 -45 56 -32 20 -81 53 -107 73 -27 20 -53 37 -58
37 -5 0 -9 7 -9 16 0 11 5 14 18 9 40 -17 93 -24 165 -23 l77 1 -19 30 c-11
17 -45 59 -76 94 l-56 63 21 30 c11 16 34 39 51 51 28 19 31 20 48 5 25 -23
31 -20 31 13 0 20 9 37 28 53 48 40 47 47 -3 44 -25 -2 -53 -10 -64 -17 -67
-50 -129 -99 -145 -118 -11 -11 -29 -21 -40 -21 -34 0 -52 -16 -38 -33 20 -23
4 -48 -25 -40 -25 6 -25 4 -19 -29 5 -29 1 -42 -26 -80 -18 -25 -49 -58 -68
-74 -19 -15 -67 -58 -106 -96 -40 -37 -77 -68 -83 -68 -22 0 -33 55 -29 145 3
78 8 98 32 139 34 58 157 186 179 186 9 0 35 -22 58 -49 41 -48 59 -56 59 -26
0 7 -17 35 -38 62 -21 26 -42 54 -46 61 -10 16 109 140 173 181 25 16 72 39
104 51 31 12 57 26 57 31 0 12 -9 12 -66 -6 -76 -23 -94 -20 -90 13 1 15 8 38
15 51 7 12 10 25 7 28 -7 8 -131 -22 -200 -47 -68 -26 -96 -50 -96 -85 l0 -25
38 19 c20 10 48 22 62 26 21 6 17 -1 -23 -43 l-49 -50 42 -14 42 -14 -121
-109 c-66 -60 -125 -111 -130 -113 -14 -5 -14 98 0 135 12 32 77 103 94 103 7
0 20 9 30 20 18 20 17 20 -9 20 -15 0 -44 -9 -66 -20 -66 -34 -70 -31 -70 59
0 94 13 135 72 221 50 73 99 108 202 144 l68 24 -31 -32 c-17 -18 -28 -35 -25
-39 4 -4 26 -7 50 -7 35 0 47 5 68 30 20 24 66 111 66 125 0 7 -93 -16 -141
-34 -90 -35 -96 -32 -93 44 l2 65 -29 -17 c-53 -31 -131 -119 -131 -147 0 -20
-8 -28 -34 -36 -19 -6 -38 -9 -44 -5 -5 3 -10 42 -10 87 0 98 14 130 93 215
53 56 63 63 98 63 40 0 51 14 27 38 -8 8 -3 18 20 41 32 29 41 51 22 51 -29 0
-94 -47 -170 -124 -46 -47 -88 -86 -92 -86 -5 0 -8 56 -8 123 0 122 0 125 35
190 48 91 58 117 42 117 -6 0 -25 -21 -41 -46 -19 -29 -32 -42 -38 -36 -9 9
-6 168 6 293 3 34 34 95 43 85 3 -3 0 -21 -7 -41 -7 -20 -10 -39 -7 -41 9 -10
75 24 91 47 17 25 24 169 7 169 -5 0 -41 -30 -80 -66 -44 -41 -71 -60 -71 -50
0 9 -4 16 -10 16 -5 0 -10 -7 -10 -16 0 -10 -27 9 -71 50 -39 36 -75 66 -80
66 -5 0 -9 -33 -9 -73z m-6 -1036 c-6 -6 -24 19 -24 34 1 6 7 1 15 -9 8 -11
12 -22 9 -25z m366 14 c-7 -9 -15 -13 -18 -10 -3 2 1 11 8 20 7 9 15 13 18 10
3 -2 -1 -11 -8 -20z m-300 -1375 c30 -16 40 -26 40 -45 0 -14 -1 -25 -3 -25
-2 0 -23 20 -47 45 -49 50 -47 54 10 25z m230 -25 c-24 -25 -45 -45 -47 -45
-2 0 -3 11 -3 25 0 18 10 30 38 44 57 31 60 25 12 -24z m-618 -111 c48 -29 88
-87 102 -147 10 -41 -8 -57 -64 -57 -26 0 -82 -9 -125 -20 -95 -24 -92 -24
-105 -1 -8 15 -5 28 9 53 16 28 26 72 22 100 -1 4 -33 -4 -72 -18 -39 -14 -73
-23 -75 -21 -6 6 111 97 124 97 5 0 14 12 21 26 11 25 15 26 64 22 34 -3 69
-15 99 -34z m1160 11 c6 -14 15 -25 20 -25 13 0 130 -91 124 -97 -2 -2 -36 7
-75 21 -39 14 -72 22 -75 18 -8 -13 10 -80 28 -107 13 -19 14 -30 6 -45 -13
-24 -9 -24 -105 0 -43 11 -96 20 -117 20 -47 0 -78 15 -78 37 0 36 54 134 84
152 65 41 92 51 134 51 36 0 44 -4 54 -25z m-971 -68 c74 -69 211 -289 188
-303 -24 -14 -128 117 -163 206 -10 25 -33 66 -52 93 -19 26 -31 47 -26 47 4
0 28 -19 53 -43z m640 -10 c-16 -24 -38 -64 -47 -88 -22 -55 -66 -123 -112
-171 -33 -35 -62 -49 -62 -30 1 7 41 80 99 177 32 54 139 170 149 161 2 -3
-10 -25 -27 -49z m-1043 -191 c2 -10 -10 -37 -27 -61 -35 -49 -40 -71 -13 -60
9 4 23 9 30 12 6 3 12 0 12 -7 0 -7 8 -10 20 -7 22 6 40 -17 40 -52 0 -28 -11
-27 -110 15 -47 19 -103 42 -125 50 -45 17 -154 85 -155 97 0 4 53 7 118 8 71
0 131 5 152 13 43 16 54 15 58 -8z m1477 9 c26 -9 81 -14 158 -15 64 0 117 -3
117 -7 -1 -12 -110 -80 -155 -97 -22 -8 -78 -31 -125 -50 -99 -42 -110 -43
-110 -15 0 35 18 58 40 52 12 -3 20 0 20 7 0 7 7 9 15 6 8 -3 22 -9 30 -12 24
-10 17 17 -15 60 -29 38 -37 66 -23 79 3 4 7 7 7 7 1 0 19 -7 41 -15z m-1120
-46 c16 -8 44 -36 62 -63 17 -26 42 -60 56 -75 30 -31 127 -215 127 -239 0
-32 -40 -83 -77 -98 -93 -39 -174 32 -348 301 -33 52 -69 103 -80 115 -15 16
-17 25 -9 38 25 38 205 53 269 21z m919 8 c62 -15 78 -37 49 -69 -12 -13 -42
-57 -67 -98 -62 -101 -140 -204 -203 -267 -61 -61 -105 -75 -159 -49 -35 16
-74 68 -74 98 0 27 99 209 136 250 18 20 39 49 47 65 20 37 48 62 83 73 40 12
130 10 188 -3z m-743 -620 c-1 -12 -15 -9 -19 4 -3 6 1 10 8 8 6 -3 11 -8 11
-12z m379 5 c0 -13 -12 -22 -22 -16 -10 6 -1 24 13 24 5 0 9 -4 9 -8z m-525
-84 c9 -13 45 -69 82 -126 59 -92 69 -115 94 -220 27 -109 37 -183 23 -169 -3
3 -10 25 -15 49 -18 79 -55 97 -107 53 -17 -14 -37 -25 -45 -25 -29 0 -150
152 -163 204 -5 22 -3 28 14 33 19 5 21 12 20 78 -2 66 1 77 26 109 31 42 49
45 71 14z m721 -14 c25 -32 28 -43 26 -109 -1 -66 1 -73 20 -78 17 -5 19 -11
14 -33 -13 -52 -134 -204 -163 -204 -8 0 -28 11 -45 25 -52 44 -89 26 -107
-53 -5 -24 -12 -46 -15 -49 -14 -14 -4 61 22 169 26 104 36 127 95 220 112
174 108 171 153 112z m-1559 -498 c-5 -13 -97 -50 -104 -42 -3 2 20 22 49 45
40 31 54 37 56 25 2 -8 1 -21 -1 -28z m2426 -34 c10 -13 8 -14 -13 -7 -72 22
-90 34 -90 60 l0 26 45 -32 c25 -18 51 -40 58 -47z m-1793 -2 c0 -5 -9 -10
-19 -10 -11 0 -23 5 -26 10 -4 6 5 10 19 10 14 0 26 -4 26 -10z m1105 0 c-3
-5 -15 -10 -26 -10 -10 0 -19 5 -19 10 0 6 12 10 26 10 14 0 23 -4 19 -10z
m-995 -33 c14 -5 20 -11 13 -14 -6 -2 -31 5 -55 16 -35 16 -37 19 -13 14 17
-3 41 -10 55 -16z m885 2 c-43 -20 -76 -25 -59 -10 9 9 70 29 89 29 6 0 -8 -8
-30 -19z"/>
<path d="M3260 6678 c0 -85 14 -112 67 -135 43 -17 48 -13 34 28 -17 49 -13
53 15 20 27 -33 44 -33 44 0 0 23 -84 116 -129 142 l-31 18 0 -73z"/>
<path d="M3695 6722 c-56 -40 -115 -108 -115 -131 0 -33 17 -33 44 0 28 33 32
29 15 -20 -14 -41 -9 -45 34 -27 54 22 68 52 65 136 l-3 72 -40 -30z"/>
<path d="M3120 6505 c0 -74 1 -78 34 -111 19 -19 44 -34 56 -34 23 0 23 9 4
67 -4 10 9 1 30 -20 20 -21 36 -47 36 -58 0 -26 41 -66 75 -75 35 -9 39 -2 20
41 -20 49 -13 55 16 16 28 -39 39 -39 39 -2 0 22 -15 43 -70 95 -77 73 -96 81
-85 39 6 -26 4 -25 -28 12 -19 22 -55 55 -81 73 l-46 33 0 -76z"/>
<path d="M3819 6536 c-30 -24 -65 -57 -77 -72 l-22 -29 6 28 c9 42 -9 34 -85
-38 -70 -66 -85 -92 -70 -116 6 -11 15 -6 38 21 l31 35 -15 -44 c-8 -24 -13
-46 -11 -49 3 -2 17 -1 31 2 34 9 75 49 75 75 0 11 16 37 36 58 21 21 34 30
30 20 -19 -58 -19 -67 4 -67 12 0 37 15 56 34 33 33 34 37 34 110 0 42 -1 76
-2 76 -2 0 -28 -20 -59 -44z"/>
<path d="M3119 6181 c-24 -21 -58 -58 -76 -83 l-31 -44 85 2 c80 2 88 4 114
31 15 15 31 41 35 57 7 28 6 29 -22 23 -16 -3 -38 -9 -49 -12 -14 -5 -10 2 13
22 39 36 40 43 3 43 -19 0 -43 -13 -72 -39z"/>
<path d="M3780 6213 c0 -5 14 -21 32 -36 23 -20 27 -27 13 -22 -11 3 -33 9
-49 12 -28 6 -29 5 -22 -23 4 -16 20 -42 35 -57 26 -27 34 -29 114 -31 l85 -2
-31 44 c-48 67 -115 122 -148 122 -16 0 -29 -3 -29 -7z"/>
<path d="M2859 5883 c-7 -50 2 -148 15 -168 14 -21 82 -53 92 -43 2 3 -3 25
-11 49 l-15 44 31 -35 c23 -28 32 -32 38 -21 5 8 6 23 2 33 -13 36 -149 163
-152 141z"/>
<path d="M4089 5853 c-44 -36 -109 -109 -109 -122 0 -3 5 -13 10 -21 8 -12 15
-9 39 20 l31 35 -15 -44 c-8 -24 -13 -46 -11 -49 10 -10 78 22 92 43 14 22 25
158 13 169 -3 3 -25 -11 -50 -31z"/>
<path d="M2664 5625 c-78 -14 -144 -33 -158 -45 -4 -5 5 -16 20 -26 16 -10 49
-35 74 -56 63 -52 129 -80 171 -72 45 9 79 27 107 57 l23 24 -38 15 c-21 9
-53 19 -70 23 -56 12 -36 25 37 25 79 0 90 13 44 49 -31 25 -98 27 -210 6z"/>
<path d="M4128 5620 c-48 -37 -37 -50 42 -50 39 0 70 -4 70 -8 0 -5 -30 -17
-67 -28 -37 -10 -67 -23 -67 -29 1 -19 73 -67 113 -76 52 -11 112 12 181 70
25 21 58 46 73 56 15 10 24 22 20 26 -16 16 -169 50 -253 55 -77 6 -87 4 -112
-16z"/>
<path d="M2713 5275 c-39 -17 -150 -126 -214 -210 l-45 -60 135 5 c113 4 142
9 171 26 38 21 74 79 83 132 8 40 -8 42 -84 12 -28 -12 -56 -19 -62 -17 -6 2
18 25 52 52 45 34 59 50 50 55 -31 17 -56 18 -86 5z"/>
<path d="M4216 5277 l-30 -13 64 -49 c35 -27 59 -50 53 -52 -6 -2 -34 5 -62
17 -76 30 -92 28 -84 -12 9 -53 45 -111 83 -132 29 -17 58 -22 171 -26 l135
-5 -45 60 c-66 86 -176 194 -216 211 -19 8 -36 14 -37 14 -2 -1 -16 -7 -32
-13z"/>
<path d="M2350 4874 c-82 -17 -191 -55 -188 -65 6 -14 104 -80 166 -110 51
-25 70 -30 100 -24 45 8 99 40 113 67 14 26 5 32 -72 48 -70 15 -68 30 4 31
29 0 61 4 72 8 18 7 18 9 -7 34 -32 32 -81 34 -188 11z"/>
<path d="M4462 4863 c-25 -25 -25 -27 -7 -34 11 -4 43 -8 72 -8 72 -1 74 -16
4 -31 -32 -7 -64 -16 -71 -20 -34 -21 70 -100 131 -100 41 0 236 109 247 139
3 10 -108 48 -193 66 -108 23 -151 20 -183 -12z"/>
<path d="M2689 4807 c-52 -43 -104 -100 -173 -189 l-32 -43 140 5 c86 4 150
11 164 19 34 18 82 99 82 138 0 18 -4 33 -8 33 -5 0 -35 -9 -67 -20 -33 -11
-63 -19 -68 -17 -5 1 16 22 47 46 31 24 55 49 53 55 -2 6 -22 12 -44 14 -35 3
-47 -3 -94 -41z"/>
<path d="M4177 4843 c-13 -12 -7 -21 49 -64 31 -24 52 -45 47 -46 -5 -2 -35 6
-68 17 -32 11 -62 20 -67 20 -16 0 -7 -66 15 -104 41 -73 60 -80 221 -86 l142
-5 -31 41 c-67 87 -112 137 -168 185 -48 40 -66 49 -96 49 -21 0 -41 -3 -44
-7z"/>
<path d="M2440 4546 c-30 -7 -80 -19 -111 -26 l-57 -14 77 -59 c107 -83 144
-100 203 -95 35 4 60 14 86 35 20 17 36 34 36 39 -1 5 -35 20 -75 34 l-74 25
75 3 c41 2 78 6 83 11 4 4 -4 20 -17 34 -23 25 -31 27 -98 26 -40 0 -98 -6
-128 -13z"/>
<path d="M4335 4536 c-14 -14 -23 -31 -20 -36 3 -6 38 -10 77 -10 39 0 68 -3
65 -7 -4 -3 -34 -15 -68 -27 -34 -12 -61 -25 -62 -31 -1 -23 73 -68 121 -73
59 -5 96 12 203 95 l76 59 -96 24 c-53 13 -135 26 -183 28 -83 4 -88 3 -113
-22z"/>
<path d="M1964 4441 c12 -20 30 -56 40 -81 31 -79 80 -136 130 -150 46 -13
121 -6 132 12 4 5 -18 34 -47 64 -29 30 -48 54 -41 54 7 0 39 -13 72 -30 35
-18 61 -26 65 -20 8 13 -3 51 -23 72 -21 25 -151 73 -259 96 l-92 20 23 -37z"/>
<path d="M4955 4455 c-166 -38 -248 -76 -266 -122 -19 -51 -5 -56 60 -23 33
16 66 30 73 30 7 0 -14 -26 -46 -59 l-58 -58 33 -12 c80 -28 154 -2 202 72 18
29 40 68 47 87 8 19 24 52 37 73 13 20 22 37 21 36 -2 0 -48 -11 -103 -24z"/>
<path d="M2118 4045 c-53 -43 -105 -100 -172 -188 l-33 -43 129 2 128 1 -43
-51 c-23 -28 -55 -67 -69 -87 l-27 -37 128 3 c142 3 182 15 219 65 24 32 50
116 39 126 -4 4 -39 -5 -78 -19 -40 -15 -74 -25 -77 -23 -2 3 24 26 57 52 34
26 61 51 61 55 0 12 -46 22 -74 17 -22 -4 -23 -3 -15 19 12 32 12 73 -1 73 -5
0 -40 -11 -76 -25 -37 -14 -69 -23 -71 -21 -2 2 23 25 56 51 65 51 70 59 45
69 -39 15 -73 5 -126 -39z"/>
<path d="M4753 4083 c-22 -8 -15 -19 48 -68 33 -26 58 -49 56 -51 -2 -2 -34 7
-71 21 -36 14 -71 25 -76 25 -13 0 -13 -41 -1 -73 8 -22 7 -23 -15 -19 -28 5
-74 -5 -74 -17 0 -4 27 -29 61 -55 33 -26 59 -49 57 -52 -3 -2 -37 8 -77 23
-39 14 -74 23 -78 19 -10 -10 15 -95 37 -126 35 -49 80 -62 221 -65 l128 -3
-27 37 c-14 20 -46 59 -69 87 l-43 51 128 -1 129 -2 -33 43 c-114 149 -208
233 -258 232 -17 0 -37 -3 -43 -6z"/>
<path d="M2548 3798 c-30 -29 -64 -68 -77 -85 l-22 -33 75 0 c87 0 122 13 142
51 14 28 19 69 9 69 -3 0 -22 -7 -42 -15 -48 -20 -51 -14 -8 19 38 29 38 46 0
46 -16 0 -43 -19 -77 -52z"/>
<path d="M4345 3841 c-3 -5 11 -22 30 -37 43 -33 40 -39 -8 -19 -20 8 -39 15
-42 15 -10 0 -5 -41 9 -69 20 -38 55 -51 142 -51 l75 0 -22 33 c-43 60 -129
137 -154 137 -13 0 -26 -4 -30 -9z"/>
<path d="M2785 3655 c-38 -7 -107 -25 -152 -40 l-83 -28 78 -52 c108 -73 135
-85 183 -85 47 0 111 32 134 66 17 27 16 28 -55 44 -89 20 -90 27 -6 35 62 6
76 10 72 22 -3 8 -6 16 -6 19 0 8 -60 34 -77 33 -10 0 -49 -7 -88 -14z"/>
<path d="M4083 3660 c-18 -8 -43 -38 -43 -53 0 -3 35 -8 77 -12 83 -8 82 -15
-7 -35 -30 -7 -58 -15 -62 -17 -14 -8 21 -49 61 -71 75 -43 137 -27 279 72
l62 44 -97 31 c-84 26 -206 52 -238 50 -5 0 -20 -4 -32 -9z"/>
<path d="M1704 3469 c13 -24 38 -78 55 -119 17 -41 46 -95 64 -120 l33 -44
-79 -27 -80 -26 93 -61 c113 -75 150 -88 208 -73 50 14 122 79 101 92 -7 4
-41 13 -75 20 -68 14 -76 29 -15 29 51 0 102 11 99 21 -2 4 -36 44 -76 88 -40
45 -71 81 -67 81 3 0 41 -18 85 -40 44 -22 82 -40 85 -40 12 0 4 67 -11 88
-29 42 -233 127 -361 151 -26 5 -56 13 -65 16 -15 6 -14 0 6 -36z"/>
<path d="M5265 3497 c-190 -47 -359 -116 -388 -158 -16 -21 -24 -89 -12 -89 3
0 41 18 85 40 44 22 82 40 86 40 3 0 -28 -37 -70 -82 -42 -46 -76 -86 -76 -89
0 -9 54 -19 101 -19 40 0 66 -20 27 -21 -13 0 -48 -8 -77 -17 l-55 -17 37 -37
c46 -46 106 -65 158 -49 36 11 201 115 207 130 1 5 -30 19 -71 32 l-73 24 33
47 c19 26 52 88 73 139 22 51 47 103 55 116 9 13 12 22 8 22 -5 -1 -26 -6 -48
-12z"/>
<path d="M2383 3486 c-69 -13 -148 -36 -207 -61 l-28 -12 86 -57 c129 -85 180
-97 251 -58 31 16 68 59 61 71 -4 5 -32 15 -64 22 -84 18 -83 26 2 34 42 4 76
11 76 14 0 16 -48 51 -75 55 -17 3 -62 -1 -102 -8z"/>
<path d="M4500 3493 c-18 -7 -60 -44 -60 -54 0 -3 34 -10 76 -14 85 -8 86 -16
2 -34 -32 -7 -60 -17 -64 -22 -7 -12 30 -55 61 -71 71 -39 120 -27 254 60 l84
55 -49 20 c-100 39 -269 73 -304 60z"/>
<path d="M2684 3292 c-48 -35 -152 -145 -193 -205 l-30 -44 97 -1 c136 -1 190
11 231 52 34 34 67 123 52 139 -5 4 -39 -3 -77 -17 -37 -14 -70 -23 -72 -22
-2 2 21 24 52 47 57 46 67 63 40 73 -32 12 -62 5 -100 -22z"/>
<path d="M4213 3313 c-24 -9 -12 -28 43 -72 31 -23 54 -45 52 -47 -2 -1 -35 8
-72 22 -38 14 -72 21 -77 17 -15 -16 18 -105 52 -139 41 -41 95 -53 231 -52
l97 1 -30 44 c-41 60 -145 170 -193 205 -36 26 -73 34 -103 21z"/>
<path d="M1915 2712 c-28 -6 -62 -39 -101 -100 -43 -66 -107 -195 -124 -247
-7 -22 -17 -46 -23 -52 -12 -16 -7 -16 45 1 24 8 73 22 111 30 37 9 94 29 126
45 50 26 63 38 85 83 26 52 33 121 17 161 -6 17 -16 13 -89 -37 -45 -31 -82
-53 -82 -49 0 5 22 37 50 73 27 36 49 70 50 76 0 13 -35 22 -65 16z"/>
<path d="M5037 2711 l-29 -6 56 -77 c31 -42 56 -79 56 -82 0 -4 -37 19 -82 50
-73 50 -83 54 -89 37 -16 -40 -9 -109 17 -161 22 -45 35 -57 85 -83 32 -16 89
-36 126 -45 38 -8 87 -22 111 -30 52 -17 57 -17 45 -1 -6 6 -16 30 -23 52 -28
87 -135 280 -176 317 -27 24 -65 35 -97 29z"/>
<path d="M2218 2570 c-56 -37 -186 -173 -234 -244 l-34 -51 122 -3 c160 -4
214 8 261 56 41 42 67 97 67 142 0 37 -8 37 -95 5 -37 -14 -72 -24 -78 -22 -6
2 22 29 62 61 78 63 80 74 15 83 -32 4 -48 -1 -86 -27z"/>
<path d="M2966 2579 c-45 -35 -121 -204 -152 -335 -8 -34 -17 -70 -20 -78 -5
-12 9 -9 57 13 35 15 84 36 109 45 122 44 190 121 190 217 0 52 -14 99 -29 99
-6 0 -39 -27 -74 -60 -36 -33 -68 -60 -72 -60 -3 0 14 38 39 84 25 46 46 87
46 90 0 15 -70 4 -94 -15z"/>
<path d="M3940 2594 c0 -4 18 -39 40 -79 22 -40 40 -78 40 -85 0 -7 -29 15
-65 49 -36 33 -70 61 -76 61 -15 0 -29 -46 -29 -96 0 -48 20 -107 48 -137 21
-24 126 -81 177 -97 22 -7 62 -23 88 -36 38 -18 47 -20 43 -8 -3 8 -12 44 -20
78 -31 131 -107 300 -152 335 -24 19 -94 30 -94 15z"/>
<path d="M4663 2590 c-13 -5 -23 -12 -23 -14 0 -3 32 -31 72 -62 39 -32 67
-59 61 -61 -6 -2 -41 8 -78 22 -87 32 -95 32 -95 -5 0 -45 26 -100 67 -142 47
-48 101 -60 263 -56 l123 3 -61 80 c-67 89 -157 180 -216 219 -40 27 -74 31
-113 16z"/>
<path d="M2547 2514 c-36 -20 -96 -139 -136 -274 -18 -58 -36 -117 -40 -131
l-8 -26 109 44 c150 60 206 96 229 147 27 60 24 197 -5 196 -6 -1 -40 -27 -76
-60 -35 -32 -66 -57 -68 -55 -3 2 14 38 37 79 22 41 41 80 41 86 0 15 -51 12
-83 -6z"/>
<path d="M4370 2520 c0 -6 19 -45 41 -86 23 -41 40 -77 37 -79 -2 -2 -33 23
-68 55 -36 33 -70 59 -76 60 -16 0 -24 -34 -24 -103 0 -115 44 -158 248 -240
l109 -44 -8 26 c-4 14 -22 71 -38 126 -43 142 -102 260 -140 279 -34 18 -81
21 -81 6z"/>
</g>
</svg>
